<svg id="Camada_1" data-name="Camada 1" xmlns="http://www.w3.org/2000/svg" viewBox="0 0 27.14 27.14"><title>alert</title><path d="M22.57,21.57H21.33L16.94,5.77a3,3,0,0,0-2.89-2.2h-1a3,3,0,0,0-2.85,2.2L5.81,21.57H4.57a1,1,0,0,0,0,2h18a1,1,0,0,0,0-2ZM12.13,6.3a1,1,0,0,1,1-.73h1a1,1,0,0,1,1,.73l.79,3.27h-4.7Zm-1.47,5.27h5.82l1.09,4h-8Zm-2.77,10,1.11-4h9.14l1.11,4Z"/><polygon points="26.13 4.19 23.41 4.19 23.41 1.48 22.41 1.48 22.41 4.19 19.7 4.19 19.7 5.19 22.41 5.19 22.41 7.91 23.41 7.91 23.41 5.19 26.13 5.19 26.13 4.19"/></svg>