<svg id="Camada_1" data-name="Camada 1" xmlns="http://www.w3.org/2000/svg" viewBox="0 0 74.28 61.06"><defs><style>.cls-1{fill:#152841;}</style></defs><title>buraco</title><path class="cls-1" d="M5,72.49V64H15.23c-2.26-2.24-2.1-4.78-1.74-7.32.46-3.23.5-3.23-2.62-3.76C9.7,52.68,8.78,52.43,9,50.8c.68-4.82,1.23-9.66,1.81-14.49.45-3.8,2.06-6.7,6-7.79a2.94,2.94,0,0,0,1.77-1.76c1.95-3.65,3.93-7.28,5.87-10.93a7.42,7.42,0,0,1,8-4.2Q46.1,13.22,59.76,15a7.65,7.65,0,0,1,7,6.34c.91,3.84,1.9,7.66,2.87,11.49a3.62,3.62,0,0,0,1.61,2.55c3.22,2,4.24,5,3.76,8.59-.58,4.46-1.18,8.92-1.71,13.38-.37,3.14-.33,3.16-3.44,2.73-1.29-.18-2.07,0-2.24,1.62-.25,2.29-.31,4.67-1.77,6.72,2.73.4,4.84-.13,5.11-1.58.54-2.84,2.29-3.3,4.7-3a13.76,13.76,0,0,0,2,0c1.12,0,1.54.53,1.52,1.59,0,1.42,0,2.84,0,4.26,0,2.91,0,2.91-3,2.92H7.16C6.42,72.61,5.69,72.53,5,72.49ZM32,17.08a2.89,2.89,0,0,0-3.1,1.83c-1.34,2.58-2.66,5.16-4,7.73C23.67,29,23.69,29,26.33,29.33c4.83.59,9.66,1.18,14.49,1.8a3.07,3.07,0,0,0,3.13-1,4.23,4.23,0,0,1,4-1.4l8.07,1a4.2,4.2,0,0,1,3.55,2.34c.67,1.47,1.87,1.64,3.19,1.71,1,0,1.36-.36,1.11-1.37-.79-3.23-1.54-6.48-2.32-9.71a3,3,0,0,0-3-2.35c-1.6-.16-3.19-.37-4.78-.57ZM20.94,63.84h2.38c9.07,0,18.15,0,27.22,0,2,0,3.57.37,4.7,2.16a29,29,0,0,0,2.36,2.85,2,2,0,0,0,2.7.72c-2.7-1.43-3.52-3.63-3.11-6.41.14-.91.13-1.85.36-2.74.36-1.44-.26-1.79-1.57-1.94C46.13,57.26,36.3,56,26.45,54.81c-2.54-.3-2.63-.17-2.84,2.41C23.43,59.57,23.13,61.87,20.94,63.84Zm-4-25.15A4.1,4.1,0,0,0,21,43a4.49,4.49,0,0,0,4.21-4.36,4.34,4.34,0,0,0-4.1-4.23A4.09,4.09,0,0,0,16.9,38.69ZM68.62,44a3.9,3.9,0,0,0-4.23-4.08,4.19,4.19,0,0,0,.18,8.38A4,4,0,0,0,68.62,44Z" transform="translate(-4.95 -11.56)"/><path class="cls-1" d="M52.27,28.87a4,4,0,1,1,.14-8,3.86,3.86,0,0,1,3.84,4.09A3.82,3.82,0,0,1,52.27,28.87Z" transform="translate(-4.95 -11.56)"/></svg>