<svg height="512pt" viewBox="0 0 512 512" width="512pt" xmlns="http://www.w3.org/2000/svg"><path d="m512 462c0 11.046875-8.953125 20-20 20-51.363281 0-54.390625 30-118.003906 30-63.976563 0-66.335938-30-118-30-51.363282 0-54.386719 30-118 30-63.972656 0-66.332032-30-117.996094-30-11.046875 0-20-8.953125-20-20s8.953125-20 20-20c63.976562 0 66.332031 30 117.996094 30 51.910156 0 53.8125-30 118-30 63.976562 0 66.332031 30 118 30 51.910156 0 53.816406-30 118.003906-30 11.046875 0 20 8.953125 20 20zm-196-96.847656v-107.152344c0-26.074219-16.722656-48.304688-40-56.558594v54.558594c0 11.046875-8.953125 20-20 20s-20-8.953125-20-20v-18h-216c-11.046875 0-20-8.953125-20-20v-160c0-11.046875 8.953125-20 20-20h216v-18c0-11.046875 8.953125-20 20-20s20 8.953125 20 20v59.117188c89.875 9.980468 160 86.390624 160 178.882812v105.285156c13.40625-6.042968 30.003906-11.285156 56-11.285156 11.046875 0 20 8.953125 20 20s-8.953125 20-20 20c-51.363281 0-54.390625 30-118.003906 30-63.976563 0-66.335938-30-118-30-51.363282 0-54.386719 30-118 30-63.972656 0-66.332032-30-117.996094-30-11.046875 0-20-8.953125-20-20s8.953125-20 20-20c63.976562 0 66.332031 30 117.996094 30 51.910156 0 53.8125-30 118-30 28.644531 0 45.878906 6.367188 60.003906 13.152344zm-80.003906-287.152344h-195.996094v120h195.988281zm120.003906 180v122.746094c5.171875.804687 11.046875 1.253906 17.996094 1.253906 8.8125 0 15.894531-.722656 22.003906-1.976562v-122.023438c0-70.40625-52.246094-128.828125-120-138.566406v40.578125c45.589844 9.289062 80 49.695312 80 97.988281zm0 0"/></svg>