<svg id="Camada_1" data-name="Camada 1" xmlns="http://www.w3.org/2000/svg" viewBox="0 0 84.18 84.18"><defs><style>.cls-1{fill:#152842;}</style></defs><title>luz</title><path class="cls-1" d="M42.9,4.71c.83,1.62.34,3.35.43,5,.07,1.37,0,2.74,0,4.11a1.18,1.18,0,0,1-1.08,1.25c-.71.09-1.33-.28-1.33-.93,0-3.15-.58-6.33.34-9.46Z"/><path class="cls-1" d="M42.07,65.45c-2.54,0-5.08,0-7.62,0-2,0-2.5-.45-2.52-2.4a13.87,13.87,0,0,0-3.95-10c-5.51-5.9-6.73-13-3.65-20.47,3.18-7.67,9.34-11.63,17.58-12,9.61-.37,18.25,7.38,19.37,17A18.89,18.89,0,0,1,55.38,54c-2.11,2.08-2.79,4.69-3.08,7.48a16.54,16.54,0,0,0-.06,2c0,1.38-.68,2-2.05,2C47.49,65.44,44.78,65.45,42.07,65.45ZM42,62.68c1.82,0,3.65-.11,5.47,0,1.66.12,2.2-.56,2.35-2.13A13.88,13.88,0,0,1,54,51.64,16.69,16.69,0,0,0,39,23.52C32.59,24.83,28.1,28.61,26.17,34.9c-2,6.46-.43,12.24,4.33,17.06A12.37,12.37,0,0,1,33.3,56a14.87,14.87,0,0,1,1.13,4.82c.07,1.34.61,2,2.07,1.87C38.32,62.59,40.15,62.68,42,62.68Z"/><path class="cls-1" d="M42,72.48c-2.43,0-4.86,0-7.29,0a3,3,0,1,1-.17-6.07q7.55-.1,15.08,0a3,3,0,1,1-.16,6C47,72.52,44.49,72.48,42,72.48Zm7.66-2.9,0-.33H34.45v.33Z"/><path class="cls-1" d="M42.06,79.45c-1.71,0-3.41,0-5.12,0a3.1,3.1,0,0,1-3.31-2.79,3.07,3.07,0,0,1,3.06-3.24c3.57-.12,7.15-.11,10.73,0a3,3,0,0,1,3.06,3.07c0,1.71-1.35,2.9-3.3,3H42.06Z"/><path class="cls-1" d="M29.3,17.85a1.34,1.34,0,0,1-.7,1.22,1.11,1.11,0,0,1-1.49-.27,63.73,63.73,0,0,1-4.54-7.06,1.17,1.17,0,0,1,.52-1.57,1.06,1.06,0,0,1,1.49.18,59,59,0,0,1,4.64,7.18A1.07,1.07,0,0,1,29.3,17.85Z"/><path class="cls-1" d="M65,28.72a1.24,1.24,0,0,1-.72-2.25c2.4-1.34,4.83-2.65,7.28-3.9a1.14,1.14,0,0,1,1.57.53,1.12,1.12,0,0,1-.26,1.51,60.93,60.93,0,0,1-7.55,4.07A.83.83,0,0,1,65,28.72Z"/><path class="cls-1" d="M20.4,27.39c-.12,1-.7,1.62-1.57,1.26a57,57,0,0,1-7.44-4A1.11,1.11,0,0,1,11,23.21a1.06,1.06,0,0,1,1.35-.69,40.76,40.76,0,0,1,7.67,4.19C20.24,26.85,20.3,27.19,20.4,27.39Z"/><path class="cls-1" d="M62.21,11.72a9.46,9.46,0,0,1-.47,1q-1.92,2.91-3.86,5.8c-.49.74-1.1,1.39-2,.78s-.6-1.44-.11-2.18c1.31-2,2.62-4,4-5.93a1.31,1.31,0,0,1,1.68-.68A1.38,1.38,0,0,1,62.21,11.72Z"/><path class="cls-1" d="M42.49,25.55c7.63,0,14.76,7.22,14.63,14.51,0,.9-.28,1.77-1.32,1.76s-1.3-1-1.39-1.91c-.54-5.81-4.1-10.07-9.51-11.34-.75-.18-1.53-.19-2.29-.31s-1.77-.31-1.73-1.4S41.88,25.57,42.49,25.55Z"/></svg>